# xmcd
#
# Track frame offsets:
#	150
#	19100
#	36407
#	60135
#	87062
#
# Disc length: 1556 seconds
#
# Revision: 0
# Processed by: cddbd v1.5.2PL0 Copyright (c) Steve Scherf et al.
# Submitted via: EasyCDDAExtractor 2010.4.0.0
#
DISCID=2f061205
DTITLE=T.O.F.
DYEAR=1996
DGENRE=Eurodance
TTITLE0=Jump Around ('96 Bulo Mix)
TTITLE1=Jump Around (Final Mix)
TTITLE2=Jump Around (XX-Tended Playback Mix)
TTITLE3=Jump Around (Jump House Mix)
TTITLE4=Jump Around (Hard Trace Mix)
EXTD=
EXTT0=
EXTT1=
EXTT2=
EXTT3=
EXTT4=
PLAYORDER=
